<svg id="Layer_1" data-name="Layer 1" xmlns="http://www.w3.org/2000/svg" viewBox="0 0 166.43 33.46"><defs><style>.cls-1{fill:#e2374b;}.cls-2{fill:#f2f2f2;}</style></defs><title>logo</title><path class="cls-1" d="M85,192.63a.34.34,0,0,1,.11-.14.41.41,0,0,1,.25-.06h1.07a.35.35,0,0,1,.35.2l.16.35.2.49q1.14,2.82,2.3,5.61t2.29,5.59l0,0,0,.07a.12.12,0,0,0,0,.05.09.09,0,0,1,0,0q0,.24-.34.24H80.34c-.2,0-.31-.07-.31-.22a.46.46,0,0,1,0-.09.38.38,0,0,0,0-.08l4.4-10.78Q84.69,193.28,85,192.63Zm.88,3.23-2.72,7H88.6q-.68-1.75-1.33-3.48T85.9,195.86Z" transform="translate(-80.03 -192.19)"/><path class="cls-1" d="M107.43,204.95a.28.28,0,0,1-.23.09h-2a.4.4,0,0,1-.41-.32l-3.25-8.81-3.25,8.81a.43.43,0,0,1-.42.32H96a.29.29,0,0,1-.23-.08c-.05-.06,0-.15,0-.27l4.69-12a.44.44,0,0,1,.44-.32h1.43a.43.43,0,0,1,.42.32l4.69,11.93C107.47,204.79,107.48,204.89,107.43,204.95Z" transform="translate(-80.03 -192.19)"/><path class="cls-1" d="M115,194.45v10.27q0,.32-.36.32H113a.29.29,0,0,1-.32-.32V192.78c0-.24.11-.36.32-.36h5.27a4,4,0,0,1,1.61.32,4.21,4.21,0,0,1,1.3.87,4,4,0,0,1,.87,1.28,4,4,0,0,1,.31,1.59,3.77,3.77,0,0,1-.62,2.12,4.22,4.22,0,0,1-1.61,1.45l2.21,4.44.08.17a.35.35,0,0,1,0,.15c0,.15-.09.22-.27.22h-1.89a.37.37,0,0,1-.33-.17,3.5,3.5,0,0,1-.25-.48l-2.5-5.44a.26.26,0,0,1,0-.12.26.26,0,0,1,.07-.18.22.22,0,0,1,.17-.08h.19a2.32,2.32,0,0,0,1.72-.6,2,2,0,0,0,.6-1.48,1.75,1.75,0,0,0-.15-.71,2.46,2.46,0,0,0-.42-.65,2.27,2.27,0,0,0-.6-.48,1.65,1.65,0,0,0-.73-.2l-.7,0H115Z" transform="translate(-80.03 -192.19)"/><path class="cls-1" d="M135.35,204.7v-5.1h-5.66v5.1q0,.34-.37.34h-1.79q-.32,0-.32-.34V192.78a.42.42,0,0,1,.08-.26.29.29,0,0,1,.25-.1h1.84a.4.4,0,0,1,.21.07.29.29,0,0,1,.11.27v4.44h5.66v-4.42a.42.42,0,0,1,.08-.26.29.29,0,0,1,.25-.1h1.84a.36.36,0,0,1,.2.07.3.3,0,0,1,.1.27V204.7q0,.34-.36.34h-1.79C135.46,205,135.35,204.93,135.35,204.7Z" transform="translate(-80.03 -192.19)"/><path class="cls-1" d="M146.06,192.8v7.26a3.19,3.19,0,0,0,.2,1.12,2.78,2.78,0,0,0,.55.92,2.63,2.63,0,0,0,.86.62,2.6,2.6,0,0,0,1.1.23,2.55,2.55,0,0,0,1.09-.23,2.67,2.67,0,0,0,.85-.62,2.79,2.79,0,0,0,.55-.92,3.21,3.21,0,0,0,.2-1.12V192.8a.36.36,0,0,1,.11-.26.38.38,0,0,1,.28-.11h1.68a.48.48,0,0,1,.29.1.33.33,0,0,1,.14.27v7.26a5,5,0,0,1-.41,2,5.22,5.22,0,0,1-2.76,2.76,5,5,0,0,1-2,.41,5.08,5.08,0,0,1-2-.41,5.21,5.21,0,0,1-2.77-2.76,5,5,0,0,1-.41-2V192.8a.38.38,0,0,1,.1-.25.32.32,0,0,1,.25-.12h1.75a.4.4,0,0,1,.26.11A.34.34,0,0,1,146.06,192.8Z" transform="translate(-80.03 -192.19)"/><path class="cls-1" d="M159.66,203.12a1.16,1.16,0,0,1-.2-.31c0-.1,0-.22.12-.34l1.14-1.12a.31.31,0,0,1,.3-.09.81.81,0,0,1,.3.18q.25.25.57.52a4.84,4.84,0,0,0,.68.48,3.65,3.65,0,0,0,.79.34,3.12,3.12,0,0,0,.9.13,2.73,2.73,0,0,0,.9-.14,2.19,2.19,0,0,0,.67-.37,1.57,1.57,0,0,0,.42-.53,1.4,1.4,0,0,0,.14-.62,1,1,0,0,0-.25-.69,2.22,2.22,0,0,0-.6-.48,4.15,4.15,0,0,0-.77-.32l-.76-.21a8.93,8.93,0,0,1-3.14-1.5,2.89,2.89,0,0,1-1.08-2.34,3.09,3.09,0,0,1,.33-1.43,3.33,3.33,0,0,1,.94-1.11,4.42,4.42,0,0,1,1.45-.72,6.49,6.49,0,0,1,1.87-.25,4.66,4.66,0,0,1,2.15.53,7.11,7.11,0,0,1,1.79,1.29.43.43,0,0,1,0,.66l-.93,1a.31.31,0,0,1-.32.09,1.25,1.25,0,0,1-.32-.2l-.47-.37a5,5,0,0,0-.58-.38,3.93,3.93,0,0,0-.66-.3,2.23,2.23,0,0,0-.72-.12,4.62,4.62,0,0,0-.67.05,2,2,0,0,0-.63.2,1.3,1.3,0,0,0-.47.41,1.2,1.2,0,0,0-.19.71.91.91,0,0,0,.18.56,1.52,1.52,0,0,0,.51.42,5.11,5.11,0,0,0,.78.33l1,.31a16.64,16.64,0,0,1,1.63.57,5.37,5.37,0,0,1,1.33.77,3.56,3.56,0,0,1,.91,1.09,3.14,3.14,0,0,1,.34,1.51,3.32,3.32,0,0,1-.39,1.61,3.9,3.9,0,0,1-1,1.23,4.79,4.79,0,0,1-1.51.78,5.92,5.92,0,0,1-4.33-.31A6.71,6.71,0,0,1,159.66,203.12Z" transform="translate(-80.03 -192.19)"/><path class="cls-2" d="M83,213.2v7.26a3.19,3.19,0,0,0,.2,1.12,2.78,2.78,0,0,0,.55.92,2.63,2.63,0,0,0,.86.62,2.6,2.6,0,0,0,1.1.23,2.55,2.55,0,0,0,1.09-.23,2.67,2.67,0,0,0,.85-.62,2.79,2.79,0,0,0,.55-.92,3.21,3.21,0,0,0,.2-1.12V213.2a.36.36,0,0,1,.11-.26.38.38,0,0,1,.28-.11h1.68a.48.48,0,0,1,.29.1.33.33,0,0,1,.14.27v7.26a5,5,0,0,1-.41,2,5.22,5.22,0,0,1-2.76,2.76,5,5,0,0,1-2,.41,5.08,5.08,0,0,1-2-.41,5.21,5.21,0,0,1-2.77-2.76,5,5,0,0,1-.41-2V213.2a.38.38,0,0,1,.1-.25.32.32,0,0,1,.25-.12h1.75a.4.4,0,0,1,.26.11A.34.34,0,0,1,83,213.2Z" transform="translate(-80.03 -192.19)"/><path class="cls-2" d="M96.89,213.2a.39.39,0,0,1,.09-.26.34.34,0,0,1,.28-.11h2a.74.74,0,0,1,.28.06.41.41,0,0,1,.21.2l5.59,8v-8a.32.32,0,0,1,.16-.2.51.51,0,0,1,.21-.05h1.72a.45.45,0,0,1,.27.1.33.33,0,0,1,.14.27v11.87q0,.37-.41.37h-1.68a.47.47,0,0,1-.3-.08,1.5,1.5,0,0,1-.2-.2l-5.9-8.5v8.4q0,.37-.37.37H97.27a.33.33,0,0,1-.37-.37Z" transform="translate(-80.03 -192.19)"/><path class="cls-2" d="M113.78,225.1V213.17a.3.3,0,0,1,.34-.34h4.06a6,6,0,0,1,2.35.48,6.67,6.67,0,0,1,3.48,3.34,5.76,5.76,0,0,1,.54,2.48,6.06,6.06,0,0,1-.48,2.41,6.2,6.2,0,0,1-1.34,2,6.69,6.69,0,0,1-4.48,1.92h-4.13A.3.3,0,0,1,113.78,225.1Zm8.28-6a3.93,3.93,0,0,0-.31-1.56,4.06,4.06,0,0,0-.86-1.27,4,4,0,0,0-1.3-.86,4.19,4.19,0,0,0-1.62-.31h-1.68v8H118a4.19,4.19,0,0,0,1.62-.31,4,4,0,0,0,1.3-.86,4.05,4.05,0,0,0,.86-1.28A3.92,3.92,0,0,0,122.06,219.13Z" transform="translate(-80.03 -192.19)"/><path class="cls-2" d="M129.84,225.1V213.17q0-.34.32-.34h8.31a.3.3,0,0,1,.34.34v1.65a.3.3,0,0,1-.34.34h-6.15v2.57H137q.37,0,.37.34v1.61q0,.34-.37.34h-4.69v3.11h6.31q.36,0,.36.34v1.63q0,.34-.36.34h-8.47Q129.84,225.44,129.84,225.1Z" transform="translate(-80.03 -192.19)"/><path class="cls-2" d="M146.47,214.85v10.27q0,.32-.36.32h-1.7a.29.29,0,0,1-.32-.32V213.18c0-.24.11-.36.32-.36h5.27a4,4,0,0,1,1.61.32,4.21,4.21,0,0,1,1.3.87,4,4,0,0,1,.87,1.28,4,4,0,0,1,.31,1.59,3.77,3.77,0,0,1-.62,2.12,4.22,4.22,0,0,1-1.61,1.45l2.21,4.44.08.17a.35.35,0,0,1,0,.15c0,.15-.09.22-.27.22h-1.89a.37.37,0,0,1-.33-.17,3.5,3.5,0,0,1-.25-.48l-2.5-5.44a.26.26,0,0,1,0-.12.26.26,0,0,1,.07-.18.22.22,0,0,1,.17-.08H149a2.32,2.32,0,0,0,1.72-.6,2,2,0,0,0,.6-1.48,1.75,1.75,0,0,0-.15-.71,2.46,2.46,0,0,0-.42-.65,2.27,2.27,0,0,0-.6-.48,1.65,1.65,0,0,0-.73-.2l-.7,0h-2.28Z" transform="translate(-80.03 -192.19)"/><path class="cls-1" d="M164.56,223.32a4,4,0,0,0,1-.14,2.63,2.63,0,0,0,.93-.44v-2.6a.3.3,0,0,1,.34-.34h1.51a.39.39,0,0,1,.22.07.31.31,0,0,1,.1.27V224a.48.48,0,0,1-.17.37,7.54,7.54,0,0,1-1.78.88,6.47,6.47,0,0,1-2.17.36,6.36,6.36,0,0,1-2.53-.51,6.66,6.66,0,0,1-2.08-1.39,6.48,6.48,0,0,1-1.4-2.07,6.53,6.53,0,0,1,0-5.06,6.54,6.54,0,0,1,1.39-2.06,6.49,6.49,0,0,1,4.6-1.88,6.09,6.09,0,0,1,2.07.33,6.65,6.65,0,0,1,1.73.94.35.35,0,0,1,.15.22.28.28,0,0,1-.07.22l-1,1.44a.46.46,0,0,1-.2.12.33.33,0,0,1-.27-.07,4.48,4.48,0,0,0-1.08-.6,3.53,3.53,0,0,0-1.3-.23,4.23,4.23,0,0,0-1.64.31,4,4,0,0,0-2.18,2.16,4.06,4.06,0,0,0-.32,1.61,4.22,4.22,0,0,0,.32,1.64,4.36,4.36,0,0,0,.88,1.35,4,4,0,0,0,1.31.91A3.81,3.81,0,0,0,164.56,223.32Z" transform="translate(-80.03 -192.19)"/><path class="cls-1" d="M176.71,214.85v10.27q0,.32-.36.32h-1.7a.29.29,0,0,1-.32-.32V213.18c0-.24.11-.36.32-.36h5.27a4,4,0,0,1,1.61.32,4.21,4.21,0,0,1,1.3.87,4,4,0,0,1,.87,1.28,4,4,0,0,1,.31,1.59,3.77,3.77,0,0,1-.62,2.12,4.22,4.22,0,0,1-1.61,1.45L184,224.9l.08.17a.35.35,0,0,1,0,.15c0,.15-.09.22-.27.22H182a.37.37,0,0,1-.33-.17,3.5,3.5,0,0,1-.25-.48l-2.5-5.44a.26.26,0,0,1,0-.12.26.26,0,0,1,.07-.18.22.22,0,0,1,.17-.08h.19a2.32,2.32,0,0,0,1.72-.6,2,2,0,0,0,.6-1.48,1.75,1.75,0,0,0-.15-.71,2.46,2.46,0,0,0-.42-.65,2.27,2.27,0,0,0-.6-.48,1.65,1.65,0,0,0-.73-.2l-.7,0h-2.28Z" transform="translate(-80.03 -192.19)"/><path class="cls-1" d="M188.37,216.89a4.22,4.22,0,0,1,.34-1.69,4.3,4.3,0,0,1,.93-1.38,4.35,4.35,0,0,1,3.09-1.25,4.4,4.4,0,0,1,1.7.33,4.24,4.24,0,0,1,1.39.92,4.39,4.39,0,0,1,.93,1.38,4.24,4.24,0,0,1,.34,1.69,4.17,4.17,0,0,1-.34,1.68,4.41,4.41,0,0,1-.93,1.37,4.24,4.24,0,0,1-1.39.92,4.55,4.55,0,0,1-3.41,0,4.32,4.32,0,0,1-2.32-2.29A4.16,4.16,0,0,1,188.37,216.89Zm.29,8.18v-1.43a.32.32,0,0,1,.36-.36h7.62a.37.37,0,0,1,.25.09.34.34,0,0,1,.1.26v1.43a.4.4,0,0,1-.09.26.33.33,0,0,1-.26.11H189A.33.33,0,0,1,188.66,225.07Zm2-8.16a2.37,2.37,0,0,0,.16.88,2.19,2.19,0,0,0,.44.71,2,2,0,0,0,.67.47,2.21,2.21,0,0,0,1.7,0,2,2,0,0,0,.67-.47,2.06,2.06,0,0,0,.43-.71,2.49,2.49,0,0,0,.15-.88,2.44,2.44,0,0,0-.15-.87,2.26,2.26,0,0,0-.43-.72,2,2,0,0,0-3,0,2.41,2.41,0,0,0-.44.72A2.32,2.32,0,0,0,190.61,216.91Z" transform="translate(-80.03 -192.19)"/><path class="cls-1" d="M204.93,213.2v7.26a3.19,3.19,0,0,0,.2,1.12,2.78,2.78,0,0,0,.55.92,2.63,2.63,0,0,0,.86.62,2.6,2.6,0,0,0,1.1.23,2.55,2.55,0,0,0,1.09-.23,2.67,2.67,0,0,0,.85-.62,2.79,2.79,0,0,0,.55-.92,3.21,3.21,0,0,0,.2-1.12V213.2a.36.36,0,0,1,.11-.26.38.38,0,0,1,.28-.11h1.68a.48.48,0,0,1,.29.1.33.33,0,0,1,.14.27v7.26a5,5,0,0,1-.41,2,5.22,5.22,0,0,1-2.76,2.76,5,5,0,0,1-2,.41,5.08,5.08,0,0,1-2-.41,5.21,5.21,0,0,1-2.77-2.76,5,5,0,0,1-.41-2V213.2a.38.38,0,0,1,.1-.25.32.32,0,0,1,.25-.12h1.75a.4.4,0,0,1,.26.11A.34.34,0,0,1,204.93,213.2Z" transform="translate(-80.03 -192.19)"/><path class="cls-1" d="M218.8,213.2a.39.39,0,0,1,.09-.26.34.34,0,0,1,.28-.11h2a.74.74,0,0,1,.28.06.41.41,0,0,1,.21.2l5.59,8v-8a.32.32,0,0,1,.16-.2.51.51,0,0,1,.21-.05h1.72a.45.45,0,0,1,.27.1.33.33,0,0,1,.14.27v11.87q0,.37-.41.37h-1.68a.47.47,0,0,1-.3-.08,1.5,1.5,0,0,1-.2-.2l-5.9-8.5v8.4q0,.37-.37.37h-1.72a.33.33,0,0,1-.37-.37Z" transform="translate(-80.03 -192.19)"/><path class="cls-1" d="M235.68,225.1V213.17a.3.3,0,0,1,.34-.34h4.06a6,6,0,0,1,2.35.48,6.67,6.67,0,0,1,3.48,3.34,5.76,5.76,0,0,1,.54,2.48,6.06,6.06,0,0,1-.48,2.41,6.2,6.2,0,0,1-1.34,2,6.69,6.69,0,0,1-4.48,1.92H236A.3.3,0,0,1,235.68,225.1Zm8.28-6a3.93,3.93,0,0,0-.31-1.56,4.06,4.06,0,0,0-.86-1.27,4,4,0,0,0-1.3-.86,4.19,4.19,0,0,0-1.62-.31h-1.68v8h1.68a4.19,4.19,0,0,0,1.62-.31,4,4,0,0,0,1.3-.86,4.05,4.05,0,0,0,.86-1.28A3.92,3.92,0,0,0,244,219.13Z" transform="translate(-80.03 -192.19)"/></svg>